<svg width="223" height="248" viewBox="0 0 223 248" fill="none" xmlns="http://www.w3.org/2000/svg">
<path d="M220.243 113.275C223.491 144.16 222.543 177.954 219.115 208.787C218.077 218.249 216.139 228.493 209.597 234.316C204.86 238.579 198.636 239.62 192.682 240.503C161.239 245.026 129.618 247.522 97.9512 247.938C82.1189 248.146 66.2847 247.834 50.4524 247.001C39.7619 246.431 18.1997 249.758 11.9732 236.655C10.4404 233.431 10.1696 229.637 9.94374 225.945C6.83142 174.939 4.48644 123.83 0.470487 72.876C-0.567575 59.0454 -0.431283 43.915 6.65032 32.0083C11.6129 23.7426 19.3274 18.1776 27.3107 14.1234C47.9264 3.67131 70.3455 2.47697 92.4491 1.54087C122.896 0.241088 155.106 -1.94315 185.328 3.56801C189.975 4.40082 194.756 5.59515 198.77 8.4551C203.959 12.1479 207.523 18.3864 209.552 25.0424C211.582 31.6962 212.349 38.7159 213.116 45.7356C214.786 61.4362 216.408 77.0874 218.077 92.7902C218.8 99.5474 219.522 106.412 220.243 113.275Z" fill="#B2EDEF"/>
</svg>
