<svg width="153" height="172" viewBox="0 0 153 172" fill="none" xmlns="http://www.w3.org/2000/svg">
<path d="M151.374 78.5618C153.605 99.9809 152.954 123.419 150.597 144.804C149.884 151.367 148.551 158.47 144.056 162.508C140.801 165.465 136.523 166.186 132.431 166.799C110.821 169.937 89.0873 171.667 67.322 171.956C56.4393 172.101 45.5585 171.883 34.6758 171.306C27.3285 170.911 12.5075 173.218 8.22945 164.132C7.17479 161.895 6.98911 159.262 6.835 156.703C4.69411 121.329 3.08241 85.8808 0.323214 50.543C-0.389796 40.95 -0.296956 30.4565 4.57156 22.2003C7.98064 16.4665 13.2836 12.6073 18.7705 9.79544C32.9397 2.54777 48.3474 1.71848 63.5397 1.06844C84.4676 0.167879 106.604 -1.34817 127.376 2.47435C130.57 3.05096 133.857 3.88026 136.616 5.86494C140.181 8.42408 142.63 12.7519 144.024 17.367C145.421 21.9821 145.948 26.8521 146.475 31.7198C147.621 42.6086 148.737 53.4628 149.884 64.3538C150.38 69.0423 150.878 73.8021 151.374 78.5618Z" fill="#B2EDEF"/>
</svg>
